<svg stroke="#95FFAC" fill="#95FFAC" stroke-width="0" viewBox="2 0 24 24" height="512px" width="512px" xmlns="http://www.w3.org/2000/svg">
    <path fill="none" d="M0 0h24v24H0z"></path>
    <path d="M10 4H4c-1.1 0-1.99.9-1.99 2L2 18c0 1.1.9 2 2 2h16c1.1 0 2-.9 2-2V8c0-1.1-.9-2-2-2h-8l-2-2z"></path>
    <svg stroke="#95FFAC" fill="#95FFAC" stroke-width="0" viewBox="-2 3 495 495" height="512px" width="512px" xmlns="http://www.w3.org/2000/svg"><g><path fill="none" d="M0 0h24v24H0z"></path><path d="M4 5v14h16V7h-8.414l-2-2H4zm8.414 0H21a1 1 0 0 1 1 1v14a1 1 0 0 1-1 1H3a1 1 0 0 1-1-1V4a1 1 0 0 1 1-1h7.414l2 2z"></path></g></svg>
    <svg stroke="currentColor" fill="#202124" stroke-width="0" viewBox="-13 -16 1100 1100" height="512px" width="512px" xmlns="http://www.w3.org/2000/svg">
        <g><path fill="none" d="M0 0h24v24H0z"></path><path d="M16 7.5a4 4 0 1 0-8 0H6a6 6 0 1 1 10.663 3.776l-7.32 8.723L18 20v2H6v-1.127l9.064-10.802A3.982 3.982 0 0 0 16 7.5z"></path></g>
    </svg>
</svg>
